<svg width="363" height="258" viewBox="0 0 363 258" fill="none" xmlns="http://www.w3.org/2000/svg">
<g clip-path="url(#clip0_190_252)">
<g clip-path="url(#clip1_190_252)">
<path d="M98 138C120.091 138 138 120.091 138 98C138 75.9086 120.091 58 98 58C75.9086 58 58 75.9086 58 98C58 120.091 75.9086 138 98 138Z" fill="url(#paint0_linear_190_252)" stroke="#F8AF18" stroke-width="4" stroke-miterlimit="10"/>
<path d="M98 31.4V6M98 190V164.6M145.1 51L163.1 33.1M33 163L51 145.1M51 51L33 33M163.1 163.1L145.1 145.1M6 98H31.4M190 98H164.6" stroke="#FBBF24" stroke-width="12" stroke-miterlimit="10" stroke-linecap="round"/>
</g>
<g clip-path="url(#clip2_190_252)">
<path d="M304 143L301.5 143.1C306.298 123.674 303.995 103.174 295.007 85.2966C286.02 67.4194 270.939 53.343 252.486 45.6068C234.032 37.8707 213.422 36.9843 194.372 43.1075C175.323 49.2308 159.089 61.9605 148.6 79.0001C140.109 73.9559 130.434 71.2472 120.558 71.1488C110.682 71.0503 100.955 73.5656 92.3649 78.4396C83.7746 83.3135 76.6261 90.3726 71.6446 98.901C66.6631 107.429 64.0257 117.123 63.9999 127C64.0263 130.017 64.2939 133.026 64.7999 136C50.059 138.725 36.8719 146.868 27.8345 158.828C18.797 170.789 14.564 185.698 15.9687 200.623C17.3734 215.548 24.314 229.406 35.4242 239.47C46.5345 249.533 61.0095 255.074 75.9999 255L79.9999 254.8V255H304C318.852 255 333.096 249.1 343.598 238.598C354.1 228.096 360 213.852 360 199C360 184.148 354.1 169.904 343.598 159.402C333.096 148.9 318.852 143 304 143Z" fill="url(#paint1_linear_190_252)" stroke="#E6EFFC" stroke-width="6" stroke-miterlimit="10"/>
</g>
</g>
<defs>
<linearGradient id="paint0_linear_190_252" x1="78" y1="63.4" x2="118" y2="132.7" gradientUnits="userSpaceOnUse">
<stop stop-color="#FBBF24"/>
<stop offset="0.5" stop-color="#FBBF24"/>
<stop offset="1" stop-color="#F59E0B"/>
</linearGradient>
<linearGradient id="paint1_linear_190_252" x1="112.5" y1="66.7001" x2="245.6" y2="297.4" gradientUnits="userSpaceOnUse">
<stop stop-color="#F3F7FE"/>
<stop offset="0.5" stop-color="#F3F7FE"/>
<stop offset="1" stop-color="#DEEAFB"/>
</linearGradient>
<clipPath id="clip0_190_252">
<rect width="363" height="258" fill="white"/>
</clipPath>
<clipPath id="clip1_190_252">
<rect width="196" height="196" fill="white"/>
</clipPath>
<clipPath id="clip2_190_252">
<rect width="350" height="222" fill="white" transform="translate(13 36)"/>
</clipPath>
</defs>
</svg>
