<svg width="43" height="44" viewBox="0 0 43 44" fill="none" xmlns="http://www.w3.org/2000/svg">
<g clip-path="url(#clip0_15_384)">
<path fill-rule="evenodd" clip-rule="evenodd" d="M0 21.793C0 16.0908 2.26517 10.6222 6.2972 6.59017C10.3292 2.55814 15.7978 0.292969 21.5 0.292969C27.2022 0.292969 32.6708 2.55814 36.7028 6.59017C40.7348 10.6222 43 16.0908 43 21.793C43 27.4951 40.7348 32.9637 36.7028 36.9958C32.6708 41.0278 27.2022 43.293 21.5 43.293C15.7978 43.293 10.3292 41.0278 6.2972 36.9958C2.26517 32.9637 0 27.4951 0 21.793ZM20.0667 21.793V8.89297H22.9333V21.1996L31.1148 29.3782L29.0852 31.4078L20.4852 22.8078C20.3521 22.6745 20.2465 22.5163 20.1747 22.3421C20.1029 22.168 20.0662 21.9813 20.0667 21.793Z" fill="white"/>
</g>
<defs>
<clipPath id="clip0_15_384">
<rect width="43" height="43" fill="white" transform="translate(0 0.292969)"/>
</clipPath>
</defs>
</svg>
