<svg width="43" height="44" viewBox="0 0 43 44" fill="none" xmlns="http://www.w3.org/2000/svg">
<path d="M27.3266 19.444C25.5582 17.3299 24.6749 16.2728 23.6572 16.434C22.6413 16.5971 22.1666 17.8727 21.217 20.4241L20.9697 21.0834C20.701 21.809 20.5648 22.1709 20.3014 22.4379C20.0398 22.7049 19.6779 22.8464 18.9577 23.1295L18.3001 23.3857C15.7613 24.3801 14.4911 24.8781 14.3459 25.894C14.2026 26.9099 15.2776 27.7735 17.4294 29.4971L17.9848 29.945C18.5976 30.4341 18.9039 30.6796 19.0795 31.0146C19.2587 31.3496 19.2856 31.7384 19.3411 32.5142L19.3931 33.2201C19.5901 35.9489 19.6905 37.3141 20.6168 37.7799C21.5431 38.2458 22.6843 37.5022 24.9651 36.0187L25.5546 35.6335C26.2032 35.2125 26.5275 35.0011 26.8983 34.9401C27.271 34.881 27.6508 34.9796 28.4051 35.1766L29.0949 35.3558C31.7556 36.0474 33.0868 36.395 33.8052 35.6658C34.5219 34.9366 34.151 33.6161 33.4093 30.9716L33.2158 30.2908C33.0061 29.5383 32.9004 29.162 32.9524 28.7911C33.0061 28.4185 33.2122 28.0924 33.6225 27.4366L33.9987 26.8418C35.4446 24.5395 36.1666 23.3893 35.6829 22.4737C35.2009 21.5582 33.8321 21.4829 31.0926 21.336L30.3831 21.2966C29.6056 21.2554 29.215 21.2339 28.8763 21.0637C28.5359 20.8935 28.2851 20.5925 27.7834 19.9905L27.3266 19.444Z" fill="white"/>
<path d="M26.6564 9.55046L26.9843 10.4857C27.3444 11.5123 27.5254 12.0265 27.8748 12.4028C28.2259 12.7826 28.7061 12.9833 29.6682 13.3828L30.5444 13.7483C33.9306 15.1566 35.6237 15.8625 35.8154 17.3012C35.8961 17.8996 35.6954 18.4622 35.2242 19.0893C35.0737 19.0487 34.9219 19.0128 34.7691 18.9818C33.8267 18.7901 32.6281 18.7256 31.4062 18.6593L30.5282 18.6127L30.1162 18.5894L29.8456 18.2669L29.2794 17.5915C28.4911 16.6455 27.7207 15.7228 27.0004 15.0813C26.2354 14.3969 24.9562 13.5047 23.2326 13.7806C21.4911 14.0601 20.563 15.3268 20.0613 16.2298C19.5973 17.0683 19.1798 18.1899 18.757 19.324L18.4524 20.1446L18.3234 20.4904C18.2267 20.5262 18.1156 20.571 17.9776 20.6265L17.1606 20.9455C16.0319 21.388 14.9157 21.8234 14.0843 22.3018C13.1921 22.816 11.9343 23.7655 11.6853 25.5142C11.4398 27.2468 12.3625 28.5117 13.0595 29.2624C13.5791 29.8196 14.2796 30.409 15.0267 31.0146C12.2156 31.7761 10.7214 32.061 9.87211 31.1436C8.91536 30.1116 9.40986 28.2411 10.4007 24.4965L10.6551 23.529C10.9364 22.463 11.0779 21.9327 11.008 21.4041C10.9364 20.8774 10.6622 20.4133 10.114 19.487L9.6159 18.645C7.68628 15.3823 6.72236 13.7519 7.36378 12.453C8.00878 11.1558 9.83449 11.0501 13.4877 10.8405L14.4319 10.7867C15.4711 10.7258 15.9889 10.6971 16.4422 10.4553C16.8937 10.2134 17.2287 9.78875 17.8988 8.93592L18.5079 8.16192C20.8658 5.16446 22.0447 3.66663 23.3992 3.89775C24.7537 4.12888 25.3879 5.93488 26.6547 9.54867" fill="white"/>
</svg>
