<svg width="43" height="44" viewBox="0 0 43 44" fill="none" xmlns="http://www.w3.org/2000/svg">
<path d="M18.5038 6.61133C18.0751 6.61965 17.647 6.64585 17.2205 6.68985C20.4609 14.571 20.6244 19.4072 20.7435 23.2191C21.8911 23.2004 23.0385 23.1521 24.1856 23.0726C24.1128 15.693 21.0507 9.04519 18.5038 6.61133ZM21.9089 6.92227C24.2296 8.04591 26.3136 9.94168 27.9925 12.0965L29.5216 10.9947C27.4595 8.97049 24.837 7.52623 21.9089 6.92227ZM15.6804 6.92991C8.8842 8.3487 3.73873 14.2934 3.4568 21.5165C8.72556 22.5657 13.9826 23.1939 19.2319 23.2253C19.1148 19.3604 18.9727 14.8003 15.6805 6.92991H15.6804ZM36.1783 8.16441C36.0223 8.16024 35.8669 8.18477 35.7196 8.23682C35.2546 8.4015 34.8797 8.83841 34.6729 9.55341C34.4659 10.2686 34.4684 11.2226 34.7753 12.1838C35.0823 13.145 35.6275 13.9066 36.2026 14.3446C36.7777 14.7826 37.3269 14.8923 37.7919 14.7276C38.2568 14.5629 38.6316 14.126 38.8383 13.4108C39.0453 12.6957 39.043 11.7417 38.736 10.7805C38.5896 10.3216 38.3883 9.90891 38.1557 9.55451C38.0304 9.26499 37.8463 9.0357 37.6395 8.9115C37.5359 8.80665 37.4254 8.70909 37.3086 8.61949C36.9133 8.31839 36.5303 8.17256 36.1782 8.16433L36.1783 8.16441ZM36.6658 8.91625C36.7609 8.91166 36.8579 8.92033 36.9556 8.94214C36.804 9.07032 36.697 9.28332 36.6522 9.54617C36.6075 9.80902 36.6275 10.1061 36.7092 10.3886C36.8048 10.7188 36.9773 11.0039 37.1886 11.1812C37.3999 11.3585 37.6327 11.4136 37.8359 11.3342C37.9912 11.2732 38.1206 11.1368 38.2068 10.9432C38.2929 10.7495 38.3318 10.5077 38.3183 10.2499C38.3956 10.4147 38.4615 10.5887 38.5148 10.7682C38.6054 11.077 38.6572 11.3975 38.6672 11.7112C38.6773 12.0249 38.6454 12.3258 38.5735 12.5966C38.5016 12.8675 38.3909 13.103 38.2479 13.2897C38.1049 13.4764 37.9323 13.6107 37.7401 13.6849C37.3517 13.8346 36.9067 13.7305 36.5029 13.3954C36.0991 13.0603 35.7695 12.5217 35.5867 11.8981C35.4039 11.2744 35.3828 10.6168 35.528 10.0699C35.6733 9.52298 35.973 9.13152 36.3613 8.98161C36.459 8.94392 36.5609 8.92202 36.6658 8.91625ZM33.0358 10.3391L31.8877 11.1663C31.8632 12.8411 32.1716 13.869 32.6103 14.6507C33.0431 15.4214 33.6441 15.9842 34.3023 16.6486L35.6545 15.8329C35.5297 15.7576 35.409 15.6757 35.2929 15.5874C34.434 14.9331 33.7421 13.9221 33.3485 12.6894C33.0946 11.8942 32.9935 11.0938 33.0358 10.339L33.0358 10.3391ZM30.41 12.2312L24.9821 16.1422C25.4126 17.7949 25.7675 19.8263 25.8284 21.7611L32.9592 17.4591C32.3918 16.8963 31.7835 16.2746 31.2953 15.4048C30.836 14.5865 30.5116 13.5662 30.4099 12.2312H30.41ZM33.8077 18.7264L31.9374 19.8547C32.1247 20.615 32.2309 21.33 32.2467 21.9737C32.8898 21.8415 33.5307 21.6984 34.1691 21.5446C34.133 20.5797 34.0096 19.638 33.8077 18.7263L33.8077 18.7264ZM3.44336 23.0576V25.6149C13.6959 28.1128 23.9291 28.1128 34.1816 25.6149V23.1023C23.9125 25.5211 13.6567 25.0629 3.44336 23.0576ZM3.44336 27.187V40.5175C4.9213 40.8081 6.40538 41.0659 7.89453 41.2905V36.572C8.25499 36.0202 8.92116 35.7486 9.63469 35.7346C10.6778 35.7139 11.8221 36.2431 12.2617 37.2511V41.8396C19.5837 42.5703 26.8866 42.313 34.1816 40.5488V27.1868C23.9416 29.6251 13.6834 29.6251 3.44336 27.1868V27.187ZM31.1569 34.634C31.7355 34.6352 32.25 34.9044 32.25 35.4986V38.215L29.5625 38.5545V35.8382C29.5625 35.0742 30.4128 34.6325 31.1569 34.634ZM24.3133 35.6343C24.9407 35.6344 25.5312 35.9354 25.5312 36.572V39.2884L22.8438 39.4581V36.7418C22.8438 36.0202 23.6021 35.634 24.3133 35.6343ZM17.4688 36.0627C18.1406 36.0627 18.8125 36.4022 18.8125 37.0813V39.7977H16.125V37.0813C16.125 36.4022 16.7969 36.0627 17.4688 36.0627Z" fill="white"/>
</svg>
