<svg width="43" height="44" viewBox="0 0 43 44" fill="none" xmlns="http://www.w3.org/2000/svg">
<g clip-path="url(#clip0_15_389)">
<path d="M5.24061 4.81977C4.7703 3.40883 3.24178 2.65297 1.83924 3.11488C0.436705 3.5768 -0.327552 5.11371 0.134362 6.51625L4.33358 19.1055H2.68749C1.20096 19.1055 -1.30942e-05 20.3065 -1.30942e-05 21.793C-1.30942e-05 23.2795 1.20096 24.4805 2.68749 24.4805H6.12245L10.8844 38.7663C11.2623 39.9 12.3457 40.6475 13.5383 40.6055C14.7308 40.5635 15.7555 39.7321 16.041 38.5731L19.5683 24.4805H23.4316L26.959 38.5731C27.2445 39.7321 28.2691 40.5635 29.4617 40.6055C30.6543 40.6475 31.7377 39.9 32.1156 38.7663L36.8775 24.4805H40.3125C41.799 24.4805 43 23.2795 43 21.793C43 20.3065 41.799 19.1055 40.3125 19.1055H38.6664L42.8656 6.51625C43.3359 5.10531 42.5717 3.5852 41.1691 3.11488C39.7666 2.64457 38.2381 3.40883 37.7678 4.81137L32.9974 19.1055H27.6308L24.1035 5.01293C23.8096 3.82035 22.7346 2.98051 21.5 2.98051C20.2654 2.98051 19.1904 3.82035 18.8965 5.01293L15.3691 19.1055H9.99413L5.24061 4.81977ZM11.7914 24.4805H14.0254L13.068 28.3102L11.7914 24.4805ZM20.9121 19.1055L21.5 16.7455L22.0879 19.1055H20.9121ZM28.9746 24.4805H31.2086L29.932 28.3102L28.9746 24.4805Z" fill="white"/>
</g>
<defs>
<clipPath id="clip0_15_389">
<rect width="43" height="43" fill="white" transform="translate(0 0.292969)"/>
</clipPath>
</defs>
</svg>
