<svg width="24" height="24" viewBox="0 0 24 24" fill="none" xmlns="http://www.w3.org/2000/svg">
<path d="M21.9999 13.6634H13.6666V21.9967C13.6666 22.4388 13.491 22.8627 13.1784 23.1753C12.8659 23.4878 12.4419 23.6634 11.9999 23.6634C11.5579 23.6634 11.134 23.4878 10.8214 23.1753C10.5088 22.8627 10.3333 22.4388 10.3333 21.9967V13.6634H1.99992C1.55789 13.6634 1.13397 13.4878 0.821408 13.1753C0.508847 12.8627 0.333252 12.4388 0.333252 11.9967C0.333252 11.5547 0.508847 11.1308 0.821408 10.8182C1.13397 10.5057 1.55789 10.3301 1.99992 10.3301H10.3333V1.99674C10.3333 1.55472 10.5088 1.13079 10.8214 0.818233C11.134 0.505672 11.5579 0.330078 11.9999 0.330078C12.4419 0.330078 12.8659 0.505672 13.1784 0.818233C13.491 1.13079 13.6666 1.55472 13.6666 1.99674V10.3301H21.9999C22.4419 10.3301 22.8659 10.5057 23.1784 10.8182C23.491 11.1308 23.6666 11.5547 23.6666 11.9967C23.6666 12.4388 23.491 12.8627 23.1784 13.1753C22.8659 13.4878 22.4419 13.6634 21.9999 13.6634Z" fill="white"/>
</svg>
