<svg width="68" height="68" viewBox="0 0 68 68" fill="none" xmlns="http://www.w3.org/2000/svg">
<path d="M51 36.8276H36.8333V50.9942C36.8333 51.7457 36.5348 52.4663 36.0034 52.9977C35.4721 53.529 34.7514 53.8276 34 53.8276C33.2485 53.8276 32.5278 53.529 31.9965 52.9977C31.4651 52.4663 31.1666 51.7457 31.1666 50.9942V36.8276H17C16.2485 36.8276 15.5278 36.529 14.9965 35.9977C14.4651 35.4663 14.1666 34.7457 14.1666 33.9942C14.1666 33.2428 14.4651 32.5221 14.9965 31.9908C15.5278 31.4594 16.2485 31.1609 17 31.1609H31.1666V16.9942C31.1666 16.2428 31.4651 15.5221 31.9965 14.9908C32.5278 14.4594 33.2485 14.1609 34 14.1609C34.7514 14.1609 35.4721 14.4594 36.0034 14.9908C36.5348 15.5221 36.8333 16.2428 36.8333 16.9942V31.1609H51C51.7514 31.1609 52.4721 31.4594 53.0034 31.9908C53.5348 32.5221 53.8333 33.2428 53.8333 33.9942C53.8333 34.7457 53.5348 35.4663 53.0034 35.9977C52.4721 36.529 51.7514 36.8276 51 36.8276Z" fill="white"/>
</svg>
