<svg width="20" height="21" viewBox="0 0 20 21" fill="none" xmlns="http://www.w3.org/2000/svg">
<path d="M6.25066 15.75C6.06942 15.75 5.89432 15.6844 5.75773 15.5652C5.62114 15.4461 5.53231 15.2816 5.50766 15.102L5.50066 15L5.50066 6C5.50072 5.80998 5.57291 5.62706 5.70263 5.48821C5.83236 5.34936 6.00996 5.26493 6.19954 5.25197C6.38912 5.23902 6.57655 5.29851 6.72396 5.41843C6.87137 5.53835 6.96776 5.70975 6.99366 5.898L7.00066 6L7.00066 15C7.00066 15.1989 6.92164 15.3897 6.78099 15.5303C6.64034 15.671 6.44957 15.75 6.25066 15.75ZM14.5307 15.53C14.4037 15.657 14.2353 15.7342 14.0562 15.7476C13.8771 15.761 13.6991 15.7097 13.5547 15.603L13.4707 15.53L8.97066 11.03C8.84364 10.903 8.76641 10.7347 8.75302 10.5555C8.73962 10.3764 8.79095 10.1985 8.89766 10.054L8.97066 9.97L13.4707 5.47C13.6047 5.33704 13.7839 5.25951 13.9725 5.25286C14.1612 5.24622 14.3454 5.31096 14.4884 5.43416C14.6314 5.55736 14.7227 5.72996 14.7441 5.91752C14.7655 6.10508 14.7153 6.29379 14.6037 6.446L14.5307 6.53L10.5607 10.5L14.5307 14.47C14.6711 14.6106 14.75 14.8012 14.75 15C14.75 15.1988 14.6711 15.3894 14.5307 15.53Z" fill="black"/>
</svg>
