<svg width="20" height="21" viewBox="0 0 20 21" fill="none" xmlns="http://www.w3.org/2000/svg">
<path d="M13.7493 5.25C13.9306 5.25001 14.1057 5.31564 14.2423 5.43477C14.3789 5.55389 14.4677 5.71845 14.4923 5.898L14.4993 6V15C14.4993 15.19 14.4271 15.3729 14.2974 15.5118C14.1676 15.6506 13.99 15.7351 13.8005 15.748C13.6109 15.761 13.4234 15.7015 13.276 15.5816C13.1286 15.4617 13.0322 15.2902 13.0063 15.102L12.9993 15V6C12.9993 5.80109 13.0784 5.61032 13.219 5.46967C13.3597 5.32902 13.5504 5.25 13.7493 5.25ZM5.46934 5.47C5.59633 5.34298 5.76468 5.26575 5.94379 5.25236C6.1229 5.23896 6.30087 5.29029 6.44534 5.397L6.52934 5.47L11.0293 9.97C11.1564 10.097 11.2336 10.2653 11.247 10.4445C11.2604 10.6236 11.2091 10.8015 11.1023 10.946L11.0293 11.03L6.52934 15.53C6.39534 15.663 6.21613 15.7405 6.02748 15.7471C5.83883 15.7538 5.65461 15.689 5.51159 15.5658C5.36857 15.4426 5.27727 15.27 5.2559 15.0825C5.23454 14.8949 5.28469 14.7062 5.39634 14.554L5.46934 14.47L9.43934 10.5L5.46934 6.53C5.32889 6.38937 5.25 6.19875 5.25 6C5.25 5.80125 5.32889 5.61063 5.46934 5.47Z" fill="black"/>
</svg>
