<svg width="12" height="13" viewBox="0 0 12 13" fill="none" xmlns="http://www.w3.org/2000/svg">
<path d="M6.36367 2.3435C6.40878 2.29577 6.44405 2.23961 6.46745 2.17825C6.49086 2.11689 6.50195 2.05151 6.5001 1.98586C6.49824 1.92021 6.48347 1.85557 6.45663 1.79562C6.42979 1.73568 6.39141 1.68161 6.34367 1.6365C6.29594 1.59139 6.23978 1.55613 6.17842 1.53272C6.11705 1.50931 6.05168 1.49822 5.98603 1.50008C5.92038 1.50194 5.85574 1.51671 5.79579 1.54354C5.73585 1.57038 5.68178 1.60877 5.63667 1.6565L1.38667 6.1565C1.2989 6.24934 1.25 6.37225 1.25 6.5C1.25 6.62776 1.2989 6.75067 1.38667 6.8435L5.63667 11.344C5.68148 11.3928 5.73554 11.4322 5.7957 11.4599C5.85587 11.4876 5.92094 11.5031 5.98713 11.5054C6.05333 11.5078 6.11934 11.497 6.18132 11.4736C6.24329 11.4502 6.30001 11.4148 6.34817 11.3693C6.39633 11.3238 6.43498 11.2692 6.46186 11.2087C6.48874 11.1481 6.50333 11.0829 6.50477 11.0166C6.50621 10.9504 6.49448 10.8846 6.47026 10.8229C6.44604 10.7613 6.40981 10.705 6.36367 10.6575L2.43767 6.5L6.36367 2.3435Z" fill="black" stroke="black" stroke-width="0.5"/>
</svg>
