<svg width="91" height="16" viewBox="0 0 91 16" fill="none" xmlns="http://www.w3.org/2000/svg">
<g clip-path="url(#clip0_193_8)">
<path d="M83.1498 0.912109L84.9997 6.6383H91L86.15 10.18L87.9998 15.9121L83.1498 12.3704L78.2939 15.9121L80.1497 10.18L75.2938 6.6383H81.294L83.1498 0.912109Z" fill="#3440CA"/>
<path d="M64.3249 0.912109L66.1808 6.6383H72.181L67.3251 10.18L69.1809 15.9121L64.3249 12.3704L59.469 15.9121L61.3248 10.18L56.4689 6.6383H62.4691L64.3249 0.912109Z" fill="#3440CA"/>
<path d="M45.5 0.912109L47.3558 6.6383H53.3561L48.5001 10.18L50.3559 15.9121L45.5 12.3704L40.6441 15.9121L42.4999 10.18L37.6439 6.6383H43.6442L45.5 0.912109Z" fill="#3440CA"/>
<path d="M26.6751 0.912109L28.5309 6.6383H34.5311L29.6752 10.18L31.531 15.9121L26.6751 12.3704L21.8251 15.9121L23.6749 10.18L18.8249 6.6383H24.8252L26.6751 0.912109Z" fill="#3440CA"/>
<path d="M7.85607 0.912109L9.70596 6.6383H15.7062L10.8562 10.18L12.7061 15.9121L7.85607 12.3704L3.00013 15.9121L4.85594 10.18L0 6.6383H6.00026L7.85607 0.912109Z" fill="#3440CA"/>
</g>
<defs>
<clipPath id="clip0_193_8">
<rect width="91" height="15" fill="white" transform="translate(0 0.912109)"/>
</clipPath>
</defs>
</svg>
